<?xml version="1.0" encoding="utf-8"?>
<!-- Generator: Adobe Illustrator 21.0.0, SVG Export Plug-In . SVG Version: 6.00 Build 0)  -->
<svg version="1.1" baseProfile="basic" id="Слой_1"
	 xmlns="http://www.w3.org/2000/svg" xmlns:xlink="http://www.w3.org/1999/xlink" x="0px" y="0px" viewBox="0 0 32 40.9"
	 xml:space="preserve">
<style type="text/css">
	.st0{fill:#FDCF50;}
</style>
<g>
	<path class="st0" d="M19.2,9.3c1.2-1,1.9-2.4,1.9-4c0-2.9-2.4-5.2-5.2-5.2s-5.2,2.4-5.2,5.2c0,1.6,0.7,3.1,1.9,4.1
		c-2.8,0.6-5.3,2-7.3,3.8l-1.1-1.1l0.8-0.8l-1.2-1.2l-3.1,3.1l1.2,1.2l0.8-0.8l1.1,1.1C1.4,17.5,0,21,0,24.9c0,8.8,7.2,16,16,16
		s16-7.2,16-16C32,17.2,26.5,10.7,19.2,9.3z M15.8,1.8c1.9,0,3.4,1.5,3.4,3.4c0,1.5-1,2.8-2.4,3.3V7.8h1.1V5.5h-4.4v2.3h1.1v0.7
		c0,0,0,0,0,0c-1.4-0.5-2.3-1.8-2.3-3.3C12.4,3.3,14,1.8,15.8,1.8z M16,37.8C8.9,37.8,3.2,32,3.2,24.9S8.9,12.1,16,12.1
		s12.8,5.8,12.8,12.8S23.1,37.8,16,37.8z"/>
	<path class="st0" d="M22.7,18.3c-1.8-1.7-4.2-2.7-6.7-2.7v9.5l9.5-0.1C25.5,22.5,24.5,20.1,22.7,18.3z"/>
</g>
</svg>
