<?xml version="1.0" encoding="utf-8"?>
<!-- Generator: Adobe Illustrator 21.0.0, SVG Export Plug-In . SVG Version: 6.00 Build 0)  -->
<svg version="1.1" baseProfile="basic" id="Слой_1"
	 xmlns="http://www.w3.org/2000/svg" xmlns:xlink="http://www.w3.org/1999/xlink" x="0px" y="0px" viewBox="0 0 32 32"
	 xml:space="preserve">
<style type="text/css">
	.st0{fill:#FDCF50;}
</style>
<g>
	<path class="st0" d="M27.4,0H4.6C2.1,0,0,2.1,0,4.6v22.8C0,29.9,2.1,32,4.6,32h22.8c2.5,0,4.6-2.1,4.6-4.6V4.6
		C32,2.1,29.9,0,27.4,0z M28.4,27.4c0,0.5-0.4,1-1,1H4.6c-0.5,0-1-0.4-1-1V4.6c0-0.5,0.4-1,1-1h22.8c0.5,0,1,0.4,1,1V27.4z"/>
	<path class="st0" d="M5.5,22.5h21V6.8h-21V22.5z M20.3,9.5c1.2,0,2.2,1,2.2,2.2s-1,2.2-2.2,2.2s-2.2-1-2.2-2.2S19.1,9.5,20.3,9.5z
		 M7.5,16.6l4.6-3.2l5,4.7l7.5-2.1v3.9H7.5V16.6z"/>
</g>
</svg>
