<?xml version="1.0" encoding="utf-8"?>
<!-- Generator: Adobe Illustrator 21.0.0, SVG Export Plug-In . SVG Version: 6.00 Build 0)  -->
<svg version="1.1" baseProfile="basic" id="Слой_1"
	 xmlns="http://www.w3.org/2000/svg" xmlns:xlink="http://www.w3.org/1999/xlink" x="0px" y="0px" viewBox="0 0 32 32"
	 xml:space="preserve">
<style type="text/css">
	.st0{fill:#FDCF50;}
</style>
<g>
	<path class="st0" d="M27.3,4.7c-3-3-7-4.7-11.3-4.7C11.7,0,7.7,1.7,4.7,4.7c-6.2,6.2-6.2,16.4,0,22.6c3,3,7,4.7,11.3,4.7
		c4.3,0,8.3-1.7,11.3-4.7c3-3,4.7-7,4.7-11.3S30.3,7.7,27.3,4.7z M25.1,25.1c-2.4,2.4-5.6,3.8-9.1,3.8s-6.6-1.3-9.1-3.8
		c-5-5-5-13.1,0-18.1c2.4-2.4,5.6-3.8,9.1-3.8s6.6,1.3,9.1,3.8v0c2.4,2.4,3.8,5.6,3.8,9.1S27.5,22.6,25.1,25.1z"/>
	<path class="st0" d="M22.7,9.3c-0.6-0.6-1.6-0.6-2.3,0L16,13.7l-4.4-4.4C11,8.7,10,8.7,9.3,9.3c-0.6,0.6-0.6,1.6,0,2.3l4.4,4.4
		l-4.4,4.4c-0.6,0.6-0.6,1.6,0,2.3c0.3,0.3,0.7,0.5,1.1,0.5s0.8-0.2,1.1-0.5l4.4-4.4l4.4,4.4c0.3,0.3,0.7,0.5,1.1,0.5
		s0.8-0.2,1.1-0.5c0.6-0.6,0.6-1.6,0-2.3L18.3,16l4.4-4.4C23.3,11,23.3,10,22.7,9.3z"/>
</g>
</svg>
