<?xml version="1.0" encoding="utf-8"?>
<!-- Generator: Adobe Illustrator 21.0.0, SVG Export Plug-In . SVG Version: 6.00 Build 0)  -->
<svg version="1.1" baseProfile="basic" id="Слой_1"
	 xmlns="http://www.w3.org/2000/svg" xmlns:xlink="http://www.w3.org/1999/xlink" x="0px" y="0px" viewBox="0 0 32 32"
	 xml:space="preserve">
<style type="text/css">
	.st0{fill:#FDCF50;}
</style>
<g>
	<path class="st0" d="M21.7,8c-0.5-0.2-1.1-0.3-1.6-0.3c-0.1,0-0.2,0-0.2,0c-0.1,0-0.1,0.1-0.3,0.3c-0.1,0.2-0.2,0.4-0.4,0.6
		c-0.1,0.3-0.3,0.5-0.4,0.7c-0.1,0.2-0.3,0.5-0.4,0.7c-0.1,0.2-0.2,0.4-0.2,0.4c0,0.1-0.1,0.1-0.2,0.3c-0.1,0.1-0.2,0.3-0.2,0.4
		c-0.1,0.1-0.1,0.2-0.1,0.3c0,0.2,0.1,0.3,0.3,0.6c0.2,0.2,0.4,0.4,0.7,0.6c0.3,0.2,0.5,0.4,0.7,0.6c0.2,0.2,0.3,0.4,0.3,0.5
		c0,0.1,0,0.2-0.1,0.3c0,0.1-0.1,0.2-0.1,0.2c0,0.1-0.1,0.1-0.1,0.3c-0.1,0.1-0.1,0.2-0.1,0.2c-0.6,1-1.2,1.9-1.9,2.6
		c-0.7,0.7-1.6,1.4-2.6,1.9c0,0-0.1,0.1-0.2,0.1c-0.1,0.1-0.2,0.1-0.3,0.1c-0.1,0-0.1,0.1-0.2,0.1c-0.1,0-0.2,0.1-0.3,0.1
		c-0.2,0-0.4-0.2-0.7-0.5c-0.3-0.3-0.6-0.7-0.9-1c-0.3-0.3-0.5-0.5-0.7-0.5c-0.1,0-0.2,0-0.3,0.1c-0.1,0.1-0.2,0.1-0.4,0.2
		c-0.1,0.1-0.2,0.2-0.3,0.2l-0.8,0.4c-0.5,0.3-1,0.5-1.4,0.8c-0.4,0.2-0.6,0.4-0.6,0.5c0,0.1,0,0.1,0,0.2c0,0.5,0.1,1,0.3,1.6
		c0.2,0.5,0.7,0.9,1.5,1.2c0.8,0.3,1.4,0.5,2,0.5c0.2,0,0.3,0,0.5,0c0.2,0,0.3-0.1,0.5-0.1c0.1,0,0.3-0.1,0.5-0.1
		c0.2-0.1,0.4-0.1,0.5-0.2c0.1,0,0.3-0.1,0.5-0.2c0.2-0.1,0.4-0.1,0.5-0.2c1.7-0.6,3.3-1.7,4.9-3.3c1.6-1.6,2.7-3.2,3.3-4.9
		c0-0.1,0.1-0.2,0.2-0.5c0.1-0.2,0.2-0.4,0.2-0.5c0-0.1,0.1-0.2,0.2-0.5c0.1-0.2,0.1-0.4,0.1-0.5c0-0.1,0.1-0.3,0.1-0.5
		c0-0.2,0-0.4,0-0.5c0-0.6-0.2-1.3-0.5-2C22.5,8.7,22.1,8.2,21.7,8z"/>
	<path class="st0" d="M27.3,4.7c-3-3-7-4.7-11.3-4.7S7.7,1.7,4.7,4.7c-3,3-4.7,7-4.7,11.3s1.7,8.3,4.7,11.3C7.8,30.4,11.9,32,16,32
		c4.1,0,8.2-1.6,11.3-4.7c3-3,4.7-7,4.7-11.3S30.3,7.7,27.3,4.7z M25.1,25.1c-5,5-13.1,5-18.1,0c-2.4-2.4-3.8-5.6-3.8-9.1
		s1.3-6.6,3.8-9.1c2.4-2.4,5.6-3.8,9.1-3.8s6.6,1.3,9.1,3.8l0,0c2.4,2.4,3.8,5.6,3.8,9.1S27.5,22.6,25.1,25.1z"/>
</g>
</svg>
