<?xml version="1.0" encoding="utf-8"?>
<!-- Generator: Adobe Illustrator 21.0.0, SVG Export Plug-In . SVG Version: 6.00 Build 0)  -->
<svg version="1.1" baseProfile="basic" id="Слой_1"
	 xmlns="http://www.w3.org/2000/svg" xmlns:xlink="http://www.w3.org/1999/xlink" x="0px" y="0px" viewBox="0 0 27.7 32"
	 xml:space="preserve">
<style type="text/css">
	.st0{fill:#808080;}
</style>
<g>
	<path class="st0" d="M17.3,28.1c0,0.6-0.5,1.1-1.1,1.1c0,0,0,0,0,0l-12.4,0c-0.6,0-1.1-0.5-1.1-1.1l0-8.6L2.9,3.9
		c0-0.6,0.5-1.1,1.1-1.1c0,0,0,0,0,0l12.4,0c0.3,0,0.6,0.1,0.8,0.3c0.2,0.2,0.3,0.5,0.3,0.8l0,1.8c0.7-0.6,1.7-1,2.8-1c0,0,0,0,0,0
		l0-0.8c0-1-0.4-2-1.1-2.8C18.3,0.4,17.4,0,16.3,0L4,0c0,0,0,0,0,0C1.8,0,0.1,1.7,0.1,3.9L0,28.1C0,30.2,1.7,32,3.9,32l12.4,0
		c0,0,0,0,0,0c2.1,0,3.9-1.7,3.9-3.9l0-0.9c-1,0-1.9-0.2-2.8-0.5L17.3,28.1z"/>
	<path class="st0" d="M13.5,10.1c0.3-0.3,0.7-0.5,1.1-0.5c0.4,0,0.8,0.2,1.1,0.5l0-3l-11.2,0l0,16.8l8.7,0c-1.2-1.5-2-3.5-2-5.6
		c0-1.4,0.3-2.7,0.9-3.9L11.9,14c-0.3-0.3-0.5-0.7-0.5-1.1c0-0.4,0.2-0.8,0.5-1.1L13.5,10.1z"/>
	<path class="st0" d="M9.3,26.7c0,0.2,0.1,0.4,0.2,0.6c0.1,0.1,0.1,0.1,0.2,0.1c0.1,0.1,0.3,0.1,0.4,0.1c0.5,0,0.8-0.4,0.8-0.8l0,0
		c0-0.5-0.4-0.8-0.8-0.8C9.6,25.9,9.3,26.3,9.3,26.7z"/>
	<path class="st0" d="M9.1,4.9l2.4,0c0.3,0,0.5-0.2,0.5-0.5c0-0.3-0.2-0.5-0.5-0.5l-2.4,0c-0.3,0-0.5,0.2-0.5,0.5
		c0,0.2,0.1,0.3,0.2,0.4C9,4.8,9,4.9,9.1,4.9z"/>
	<path class="st0" d="M22.1,11c0.5-0.5,0.8-1.2,0.8-1.9c0-1.5-1.2-2.7-2.7-2.7c-1.5,0-2.7,1.2-2.7,2.7c0,0.8,0.3,1.5,0.8,2
		c-1.1,0.3-2.2,0.9-3,1.7l-0.5-0.5l0.4-0.4l-0.6-0.6L13,12.8l0.6,0.6l0.4-0.4l0.5,0.5c-1,1.3-1.7,2.9-1.7,4.7c0,4.1,3.3,7.4,7.4,7.4
		c4.1,0,7.4-3.3,7.4-7.4C27.7,14.8,25.3,11.8,22.1,11z M18.4,9.1c0-1,0.8-1.7,1.7-1.7c1,0,1.7,0.8,1.7,1.7c0,0.7-0.5,1.4-1.2,1.6
		V9.4h0.6V8.2H19v1.2h0.6v1.3C18.9,10.5,18.4,9.8,18.4,9.1z M20.3,18.3v-4.9c1.3,0,2.5,0.5,3.4,1.4s1.4,2.1,1.5,3.4L20.3,18.3z"/>
</g>
</svg>
