<?xml version="1.0" encoding="utf-8"?>
<!-- Generator: Adobe Illustrator 21.0.0, SVG Export Plug-In . SVG Version: 6.00 Build 0)  -->
<svg version="1.1" baseProfile="basic" id="Слой_1"
	 xmlns="http://www.w3.org/2000/svg" xmlns:xlink="http://www.w3.org/1999/xlink" x="0px" y="0px" viewBox="0 0 32 36.9"
	 xml:space="preserve">
<style type="text/css">
	.st0{fill:#808080;}
</style>
<g>
	<path class="st0" d="M18.5,5.1l0.3-4.3c0-0.2-0.1-0.4-0.2-0.5C18.5,0.1,18.3,0,18.1,0h-4.2c-0.2,0-0.4,0.1-0.5,0.2
		c-0.1,0.1-0.2,0.3-0.2,0.5l0.3,4.4C5.9,6.3,0,13,0,20.9c0,8.8,7.2,16,16,16c8.8,0,16-7.2,16-16C32,13,26.1,6.3,18.5,5.1z M16,33.5
		c-7,0-12.6-5.7-12.6-12.6c0-6.2,4.5-11.3,10.3-12.4l0.8,11.4c0,0.4,0.3,0.7,0.7,0.7h1.5c0.4,0,0.7-0.3,0.7-0.7l0.9-11.4
		c5.9,1.1,10.4,6.2,10.4,12.4C28.6,27.9,23,33.5,16,33.5z"/>
	<path class="st0" d="M18,21.7h-4.1c-0.4,0-0.7,0.3-0.7,0.7v4.1c0,0.4,0.3,0.7,0.7,0.7H18c0.4,0,0.7-0.3,0.7-0.7v-4.1
		C18.7,22,18.4,21.7,18,21.7z"/>
</g>
</svg>
