<?xml version="1.0" encoding="utf-8"?>
<!-- Generator: Adobe Illustrator 21.0.0, SVG Export Plug-In . SVG Version: 6.00 Build 0)  -->
<svg version="1.1" baseProfile="basic" id="Слой_1"
	 xmlns="http://www.w3.org/2000/svg" xmlns:xlink="http://www.w3.org/1999/xlink" x="0px" y="0px" viewBox="0 0 32.5 32"
	 xml:space="preserve">
<style type="text/css">
	.st0{fill:#808080;}
</style>
<g>
	<circle class="st0" cx="2.8" cy="3.1" r="2.6"/>
	<circle class="st0" cx="13.5" cy="2.6" r="2.6"/>
	<circle class="st0" cx="19.5" cy="6.2" r="1.7"/>
	<path class="st0" d="M29.3,12.1h-2.6l1.1-1.1h0.3c0.7,0,1.3-0.6,1.3-1.3c0-0.7-0.6-1.3-1.3-1.3H10c0-0.2,0.1-0.4,0.1-0.6
		c0-1.4-1.2-2.6-2.6-2.6S4.9,6.3,4.9,7.7c0,0.2,0,0.4,0.1,0.6H1.3C0.6,8.3,0,8.9,0,9.6C0,10.4,0.6,11,1.3,11h0.3l7.9,7.8
		c0.7,0.7,1.3,1.6,1.6,2.5c-1.5,1.1-2.4,2.8-2.4,4.8c0,3.3,2.6,5.9,5.9,5.9s5.9-2.6,5.9-5.9c0-1.9-0.9-3.6-2.3-4.7
		c0.2-0.6,0.4-1.1,0.8-1.6h10.2c1.8,0,3.2-1.5,3.2-3.2v-1.2C32.5,13.5,31.1,12.1,29.3,12.1z M14.7,29.9c-2.1,0-3.9-1.7-3.9-3.9
		c0-2.1,1.7-3.9,3.9-3.9c2.1,0,3.9,1.7,3.9,3.9C18.5,28.2,16.8,29.9,14.7,29.9z M30.4,16.5c0,0.6-0.5,1.1-1.1,1.1h-8.1l3.4-3.4h4.6
		c0.6,0,1.1,0.5,1.1,1.1V16.5z"/>
	<path class="st0" d="M15,25.7v-0.9c0.3,0.1,0.5,0.2,0.8,0.4l0.4-0.7c-0.3-0.2-0.7-0.4-1.1-0.5v-0.4h-0.6v0.4
		c-0.8,0.1-1.3,0.5-1.3,1.2v0c0,0.7,0.4,1.1,1.3,1.3v1c-0.4-0.1-0.7-0.2-1-0.5l-0.5,0.7c0.4,0.3,0.9,0.5,1.5,0.6v0.6H15v-0.6
		c0.8-0.1,1.3-0.5,1.3-1.2v0C16.3,26.3,15.9,25.9,15,25.7z M14.4,25.5c-0.3-0.1-0.4-0.2-0.4-0.4v0c0-0.2,0.1-0.3,0.4-0.4V25.5z
		 M15.4,27.1c0,0.2-0.1,0.4-0.4,0.4v-0.9C15.3,26.7,15.4,26.8,15.4,27.1L15.4,27.1z"/>
</g>
</svg>
