<?xml version="1.0" encoding="utf-8"?>
<!-- Generator: Adobe Illustrator 21.0.0, SVG Export Plug-In . SVG Version: 6.00 Build 0)  -->
<svg version="1.1" baseProfile="basic" id="Слой_1"
	 xmlns="http://www.w3.org/2000/svg" xmlns:xlink="http://www.w3.org/1999/xlink" x="0px" y="0px" viewBox="0 0 32 26.4"
	 xml:space="preserve">
<style type="text/css">
	.st0{fill:#808080;}
</style>
<g>
	<path class="st0" d="M28.5,11.5l-0.4-0.2h-1.5l-0.4,0.2L22.7,15v0.7l1.5,1.5h0.7l0.3-0.3c-1.3,3.7-4.9,6.4-9,6.4
		c-3.9,0-7.5-2.5-8.9-6.2l-0.7-0.3l-1.9,0.7l-0.3,0.7c1.9,4.9,6.6,8.2,11.8,8.2c6.2,0,11.3-4.4,12.5-10.3l1.1,1.1h0.7l1.5-1.5V15
		L28.5,11.5z"/>
	<path class="st0" d="M5.9,15l0.4-0.2l4-4v-0.7L8.8,8.6H8.1L7.2,9.6c1.3-3.8,4.9-6.5,9-6.5c3.9,0,7.5,2.5,8.9,6.1l0.7,0.3l1.9-0.7
		L28,8.1C26.2,3.3,21.4,0,16.2,0C10.1,0,4.9,4.3,3.8,10.2L2.2,8.6H1.5L0,10.1v0.7l4,4L4.4,15H5.9z"/>
</g>
</svg>
