<?xml version="1.0" encoding="utf-8"?>
<!-- Generator: Adobe Illustrator 21.0.0, SVG Export Plug-In . SVG Version: 6.00 Build 0)  -->
<svg version="1.1" baseProfile="basic" id="Слой_1"
	 xmlns="http://www.w3.org/2000/svg" xmlns:xlink="http://www.w3.org/1999/xlink" x="0px" y="0px" viewBox="0 0 32 32"
	 xml:space="preserve">
<style type="text/css">
	.st0{fill:#808080;}
</style>
<g>
	<path class="st0" d="M19.2,12c0.6,0.6,1.7,0.6,2.3,0c0.6-0.6,0.6-1.7,0-2.3l-4.3-4.3C16.8,5.1,16.4,5,16,5c-0.4,0-0.8,0.2-1.1,0.5
		l-4.3,4.3c-0.6,0.6-0.6,1.7,0,2.3c0.3,0.3,0.7,0.5,1.1,0.5c0.4,0,0.8-0.2,1.1-0.5l1.5-1.5v10.4l-1.5-1.5c-0.6-0.6-1.7-0.6-2.3,0
		c-0.6,0.6-0.6,1.7,0,2.3l4.3,4.3c0.3,0.3,0.7,0.5,1.1,0.5c0.4,0,0.8-0.2,1.1-0.5l4.3-4.3c0.6-0.6,0.6-1.7,0-2.3
		c-0.6-0.6-1.7-0.6-2.3,0l-1.5,1.5V10.5L19.2,12z"/>
	<path class="st0" d="M16,0C7.2,0,0,7.2,0,16c0,8.8,7.2,16,16,16s16-7.2,16-16C32,7.2,24.8,0,16,0z M16,28.8C9,28.8,3.2,23,3.2,16
		C3.2,9,9,3.2,16,3.2S28.8,9,28.8,16C28.8,23,23,28.8,16,28.8z"/>
</g>
</svg>
