<?xml version="1.0" encoding="utf-8"?>
<!-- Generator: Adobe Illustrator 21.0.0, SVG Export Plug-In . SVG Version: 6.00 Build 0)  -->
<svg version="1.1" baseProfile="basic" id="Слой_1"
	 xmlns="http://www.w3.org/2000/svg" xmlns:xlink="http://www.w3.org/1999/xlink" x="0px" y="0px" viewBox="0 0 28.5 32"
	 xml:space="preserve">
<style type="text/css">
	.st0{fill:#808080;}
</style>
<g>
	<path class="st0" d="M27,0H7.3C6.5,0,5.8,0.7,5.8,1.5v5.2c0,0.1,0,0.2,0,0.3H1.5C0.7,7,0,7.6,0,8.4v3.8c0,0.8,0.7,1.5,1.5,1.5
		s1.5-0.7,1.5-1.5V9.9h16.8v19.2H2.9V18.3c0-0.8-0.7-1.5-1.5-1.5S0,17.5,0,18.3v12.3C0,31.3,0.7,32,1.5,32h19.7
		c0.8,0,1.5-0.7,1.5-1.5V25H27c0.8,0,1.5-0.7,1.5-1.5V1.5C28.5,0.7,27.8,0,27,0z M25.6,22.1h-2.9V8.4C22.7,7.6,22,7,21.2,7H8.7
		c0-0.1,0-0.2,0-0.3V2.9h16.8V22.1z"/>
	<path class="st0" d="M6.2,15.7h10.2c0.6,0,1-0.5,1-1s-0.5-1-1-1H6.2c-0.6,0-1,0.5-1,1S5.7,15.7,6.2,15.7z"/>
	<path class="st0" d="M6.2,19.9h10.2c0.6,0,1-0.5,1-1c0-0.6-0.5-1-1-1H6.2c-0.6,0-1,0.5-1,1C5.2,19.4,5.7,19.9,6.2,19.9z"/>
	<path class="st0" d="M6.2,24.1h10.2c0.6,0,1-0.5,1-1c0-0.6-0.5-1-1-1H6.2c-0.6,0-1,0.5-1,1C5.2,23.6,5.7,24.1,6.2,24.1z"/>
</g>
</svg>
