<?xml version="1.0" encoding="utf-8"?>
<!-- Generator: Adobe Illustrator 21.0.0, SVG Export Plug-In . SVG Version: 6.00 Build 0)  -->
<svg version="1.1" baseProfile="basic" id="Слой_1"
	 xmlns="http://www.w3.org/2000/svg" xmlns:xlink="http://www.w3.org/1999/xlink" x="0px" y="0px" viewBox="0 0 32 31"
	 xml:space="preserve">
<style type="text/css">
	.st0{fill:#808080;}
</style>
<g>
	<path class="st0" d="M25.8,0h-0.6H6.6H6.2C2.8,0,0,3,0,6.7v0.2c0,0.9,0.7,1.6,1.6,1.6H5v20.9C5,30.3,5.7,31,6.6,31h23.8
		c0.9,0,1.6-0.7,1.6-1.6V6.7C32,3,29.2,0,25.8,0z M28.8,27.8H8.2V8.4h13.1c0.9,0,1.6-0.7,1.6-1.6V6.7c0-1.7,1.1-3.1,2.5-3.4
		c0.1,0,0.1,0,0.2,0h0.2c1.7,0,3.1,1.6,3.1,3.5V27.8z"/>
	<rect x="11.9" y="10.4" class="st0" width="13" height="7.1"/>
	<path class="st0" d="M23.7,18.9H13.3c-0.6,0-1.1,0.5-1.1,1.1s0.5,1.1,1.1,1.1h10.3c0.6,0,1.1-0.5,1.1-1.1S24.3,18.9,23.7,18.9z"/>
	<path class="st0" d="M23.7,22.1H13.3c-0.6,0-1.1,0.5-1.1,1.1c0,0.6,0.5,1.1,1.1,1.1h10.3c0.6,0,1.1-0.5,1.1-1.1
		C24.8,22.6,24.3,22.1,23.7,22.1z"/>
</g>
</svg>
