<?xml version="1.0" encoding="utf-8"?>
<!-- Generator: Adobe Illustrator 21.0.0, SVG Export Plug-In . SVG Version: 6.00 Build 0)  -->
<svg version="1.1" baseProfile="basic" id="Слой_1"
	 xmlns="http://www.w3.org/2000/svg" xmlns:xlink="http://www.w3.org/1999/xlink" x="0px" y="0px" viewBox="0 0 32 26.5"
	 xml:space="preserve">
<style type="text/css">
	.st0{fill:#FDCF50;}
</style>
<g>
	<path class="st0" d="M24.7,23.8H7V7.2h11.2c0.8,0,1.4-0.6,1.4-1.4V5.7c0-1.5,0.9-2.7,2.2-2.9c0.1,0,0.1,0,0.1,0h0.1
		c1.4,0,2.6,1.3,2.6,3v1.9l2.8,1.4V5.7C27.4,2.6,25,0,22.1,0h-0.5H5.7H5.4C2.4,0,0,2.6,0,5.7v0.1c0,0.8,0.6,1.4,1.4,1.4h2.9v17.9
		c0,0.8,0.6,1.4,1.4,1.4H26c0.8,0,1.4-0.6,1.4-1.4V20l-2.8,1.4V23.8z"/>
	<path class="st0" d="M31.3,13.3l-8.4-4.4c-0.4-0.2-0.8,0.2-0.8,0.7l0.3,3.2h-8.4c-0.3,0-0.6,0.3-0.6,0.6v2.1c0,0.4,0.3,0.6,0.6,0.6
		h8.4l-0.3,3.2c-0.1,0.5,0.4,0.9,0.8,0.7l8.4-4.4C32.2,15.2,32.2,13.8,31.3,13.3z"/>
</g>
</svg>
