<?xml version="1.0" encoding="utf-8"?>
<!-- Generator: Adobe Illustrator 21.0.0, SVG Export Plug-In . SVG Version: 6.00 Build 0)  -->
<svg version="1.1" baseProfile="basic" id="Слой_1"
	 xmlns="http://www.w3.org/2000/svg" xmlns:xlink="http://www.w3.org/1999/xlink" x="0px" y="0px" viewBox="0 0 32 31"
	 xml:space="preserve">
<style type="text/css">
	.st0{fill:#808080;}
</style>
<g>
	<path class="st0" d="M30.4,22.5H27v-21C27,0.7,26.3,0,25.4,0H1.6C0.7,0,0,0.7,0,1.6v22.7C0,28,2.8,31,6.2,31h0.6h18.5h0.3
		c3.4,0,6.2-3,6.2-6.7v-0.2C32,23.3,31.3,22.5,30.4,22.5z M3.2,24.3V3.2h20.6v19.4H10.7c-0.9,0-1.6,0.7-1.6,1.6v0.2
		c0,1.7-1.1,3.2-2.6,3.4c-0.1,0-0.1,0-0.2,0H6.2C4.6,27.8,3.2,26.2,3.2,24.3z"/>
	<path class="st0" d="M8.5,10h10.1c0.6,0,1.1-0.5,1.1-1.1s-0.5-1.1-1.1-1.1H8.5c-0.6,0-1.1,0.5-1.1,1.1S7.8,10,8.5,10z"/>
	<path class="st0" d="M8.5,14.1h10.1c0.6,0,1.1-0.5,1.1-1.1c0-0.6-0.5-1.1-1.1-1.1H8.5c-0.6,0-1.1,0.5-1.1,1.1
		C7.3,13.6,7.8,14.1,8.5,14.1z"/>
	<path class="st0" d="M8.5,18.3h10.1c0.6,0,1.1-0.5,1.1-1.1c0-0.6-0.5-1.1-1.1-1.1H8.5c-0.6,0-1.1,0.5-1.1,1.1
		C7.3,17.8,7.8,18.3,8.5,18.3z"/>
</g>
</svg>
