<?xml version="1.0" encoding="utf-8"?>
<!-- Generator: Adobe Illustrator 21.0.0, SVG Export Plug-In . SVG Version: 6.00 Build 0)  -->
<svg version="1.1" baseProfile="basic" id="Слой_1"
	 xmlns="http://www.w3.org/2000/svg" xmlns:xlink="http://www.w3.org/1999/xlink" x="0px" y="0px" viewBox="0 0 32 32"
	 xml:space="preserve">
<style type="text/css">
	.st0{fill:#808080;}
</style>
<g>
	<path class="st0" d="M16,0C7.2,0,0,7.2,0,16s7.2,16,16,16s16-7.2,16-16S24.8,0,16,0z M16,28.9C8.9,28.9,3.1,23.1,3.1,16
		S8.9,3.1,16,3.1S28.9,8.9,28.9,16S23.1,28.9,16,28.9z"/>
	<path class="st0" d="M26.3,13.2L23.2,12L23,12l-0.9,0.4l-0.2,0.2l-1.3,3.1l0.2,0.4l1.3,0.5l0.4-0.2l0.1-0.2
		c0.1,2.6-1.4,5.1-3.9,6.2c-2.4,1-5.2,0.4-7-1.5l-0.5,0l-1,0.9l0,0.5c2.4,2.5,6.1,3.3,9.3,2c3.8-1.6,5.8-5.5,5-9.5l1,0.4l0.4-0.2
		l0.5-1.3L26.3,13.2z"/>
	<path class="st0" d="M10.5,19.7l1.5-3.5l-0.2-0.4l-1.3-0.5l-0.4,0.2l-0.3,0.8c-0.2-2.6,1.4-5.2,3.9-6.2c2.4-1,5.2-0.4,7,1.5l0.5,0
		l1-0.9l0-0.5c-2.4-2.5-6.1-3.3-9.3-2c-3.7,1.5-5.8,5.5-5,9.4l-1.4-0.6L6,17.1l-0.5,1.3l0.2,0.4l3.5,1.5l0.3,0l0.9-0.4L10.5,19.7z"
		/>
</g>
</svg>
