<?xml version="1.0" encoding="utf-8"?>
<!-- Generator: Adobe Illustrator 21.0.0, SVG Export Plug-In . SVG Version: 6.00 Build 0)  -->
<svg version="1.1" baseProfile="basic" id="Слой_1"
	 xmlns="http://www.w3.org/2000/svg" xmlns:xlink="http://www.w3.org/1999/xlink" x="0px" y="0px" viewBox="0 0 32 32"
	 xml:space="preserve">
<style type="text/css">
	.st0{fill:#808080;}
</style>
<g>
	<path class="st0" d="M16,32C7.2,32,0,24.8,0,16S7.2,0,16,0s16,7.2,16,16S24.8,32,16,32z M16,3.1C8.9,3.1,3.1,8.9,3.1,16
		S8.9,28.9,16,28.9S28.9,23.1,28.9,16S23.1,3.1,16,3.1z"/>
	<g>
		<path class="st0" d="M17.5,8.7c0,1.1-0.7,1.9-1.8,1.9s-1.8-0.8-1.8-1.9s0.7-1.9,1.8-1.9S17.5,7.6,17.5,8.7z M14,23.8V12h3.4v11.8
			H14z"/>
	</g>
</g>
</svg>
