<?xml version="1.0" encoding="utf-8"?>
<!-- Generator: Adobe Illustrator 21.0.0, SVG Export Plug-In . SVG Version: 6.00 Build 0)  -->
<svg version="1.1" baseProfile="basic" id="Слой_1"
	 xmlns="http://www.w3.org/2000/svg" xmlns:xlink="http://www.w3.org/1999/xlink" x="0px" y="0px" viewBox="0 0 32 34.6"
	 xml:space="preserve">
<style type="text/css">
	.st0{fill:#808080;}
</style>
<g>
	<path class="st0" d="M9.8,14.9l4.9,9.4c0.5,1,2.1,1,2.6,0l4.9-9.4c0.2-0.4-0.2-0.9-0.7-0.9l-3.6,0.4V0.6c0-0.3-0.3-0.6-0.7-0.6
		h-2.4c-0.4,0-0.7,0.3-0.7,0.6v13.8L10.5,14C10,14,9.6,14.5,9.8,14.9z"/>
	<path class="st0" d="M30.6,12.1c-1.7-3.9-4.9-6.9-8.9-8.4c-0.8-0.3-1.7-0.6-2.5-0.7v3.2c0.5,0.1,0.9,0.3,1.4,0.4
		c3.2,1.2,5.8,3.6,7.2,6.8c2.9,6.5,0,14.2-6.5,17.1c-3.2,1.4-6.7,1.5-9.9,0.3c-3.2-1.2-5.8-3.6-7.2-6.8c-1.4-3.2-1.5-6.7-0.3-9.9
		c1.2-3.2,3.6-5.8,6.8-7.2c0.7-0.3,1.4-0.5,2-0.7V2.9C11.7,3.2,10.6,3.5,9.5,4c-3.9,1.7-6.9,4.9-8.4,8.9c-1.5,4-1.4,8.3,0.3,12.2
		c1.7,3.9,4.9,6.9,8.9,8.4c1.9,0.7,3.8,1.1,5.7,1.1c2.2,0,4.4-0.5,6.5-1.4C30.6,29.6,34.2,20.1,30.6,12.1z"/>
</g>
</svg>
