<?xml version="1.0" encoding="utf-8"?>
<!-- Generator: Adobe Illustrator 21.0.0, SVG Export Plug-In . SVG Version: 6.00 Build 0)  -->
<svg version="1.1" baseProfile="basic" id="Слой_1"
	 xmlns="http://www.w3.org/2000/svg" xmlns:xlink="http://www.w3.org/1999/xlink" x="0px" y="0px" viewBox="0 0 20.2 32"
	 xml:space="preserve">
<style type="text/css">
	.st0{fill:#808080;}
</style>
<g>
	<path class="st0" d="M19.1,1.2C18.3,0.4,17.4,0,16.3,0L4,0c0,0,0,0,0,0c-1,0-2,0.4-2.7,1.1C0.5,1.9,0.1,2.8,0.1,3.9L0,28.1
		c0,1,0.4,2,1.1,2.8C1.9,31.6,2.8,32,3.9,32l12.4,0c0,0,0,0,0,0c2.1,0,3.9-1.7,3.9-3.9l0.1-24.2C20.2,2.9,19.8,1.9,19.1,1.2z
		 M17.3,28.1c0,0.6-0.5,1.1-1.1,1.1c0,0,0,0,0,0l-12.4,0c-0.3,0-0.6-0.1-0.8-0.3c-0.2-0.2-0.3-0.5-0.3-0.8l0-8.6L2.9,3.9
		c0-0.3,0.1-0.6,0.3-0.8C3.4,2.9,3.7,2.8,4,2.8c0,0,0,0,0,0l12.4,0c0.3,0,0.6,0.1,0.8,0.3c0.2,0.2,0.3,0.5,0.3,0.8L17.3,28.1z"/>
	
		<rect x="1.7" y="9.9" transform="matrix(2.907104e-03 -1 1 2.907104e-03 -5.3749 25.5154)" class="st0" width="16.8" height="11.2"/>
	<path class="st0" d="M10.1,25.9c-0.5,0-0.8,0.4-0.8,0.8c0,0.2,0.1,0.4,0.2,0.6c0.1,0.1,0.1,0.1,0.2,0.1c0.1,0.1,0.3,0.1,0.4,0.1
		c0.5,0,0.8-0.4,0.8-0.8h0C10.9,26.3,10.5,25.9,10.1,25.9z"/>
	<path class="st0" d="M8.9,4.8C9,4.8,9,4.9,9.1,4.9l2.4,0c0.3,0,0.5-0.2,0.5-0.5c0-0.3-0.2-0.5-0.5-0.5l-2.4,0
		c-0.3,0-0.5,0.2-0.5,0.5C8.7,4.6,8.8,4.7,8.9,4.8z"/>
</g>
</svg>
