<?xml version="1.0" encoding="utf-8"?>
<!-- Generator: Adobe Illustrator 21.0.0, SVG Export Plug-In . SVG Version: 6.00 Build 0)  -->
<svg version="1.1" baseProfile="basic" id="Слой_1"
	 xmlns="http://www.w3.org/2000/svg" xmlns:xlink="http://www.w3.org/1999/xlink" x="0px" y="0px" viewBox="0 0 32 31"
	 xml:space="preserve">
<style type="text/css">
	.st0{fill:#808080;}
</style>
<g>
	<path class="st0" d="M30.4,22.5H27v-21C27,0.7,26.3,0,25.4,0H1.6C0.7,0,0,0.7,0,1.6v22.7C0,28,2.8,31,6.2,31h0.6h18.5h0.3
		c3.4,0,6.2-3,6.2-6.7v-0.2C32,23.3,31.3,22.5,30.4,22.5z M3.2,24.3V3.2h20.6v19.4H10.7c-0.9,0-1.6,0.7-1.6,1.6v0.2
		c0,1.7-1.1,3.2-2.6,3.4c-0.1,0-0.1,0-0.2,0H6.2C4.6,27.8,3.2,26.2,3.2,24.3z"/>
	<path class="st0" d="M6.1,9.4h7.2c0.6,0,1.1-0.5,1.1-1.1S14,7.1,13.3,7.1H6.1C5.5,7.1,5,7.6,5,8.3S5.5,9.4,6.1,9.4z"/>
	<path class="st0" d="M14.5,16.8c0-0.6-0.5-1.1-1.1-1.1H6.1c-0.6,0-1.1,0.5-1.1,1.1S5.5,18,6.1,18h7.2C14,18,14.5,17.5,14.5,16.8z"
		/>
	<path class="st0" d="M16.3,11.1c0.2,0.2,0.4,0.3,0.6,0.3s0.5-0.1,0.6-0.3L19,9.6l1.5,1.5c0.2,0.2,0.4,0.3,0.6,0.3
		c0.2,0,0.5-0.1,0.6-0.3c0.3-0.3,0.3-0.9,0-1.2l-1.5-1.5l1.5-1.5c0.3-0.3,0.3-0.9,0-1.2c-0.3-0.3-0.9-0.3-1.2,0L19,7.1l-1.5-1.5
		c-0.3-0.3-0.9-0.3-1.2,0c-0.3,0.3-0.3,0.9,0,1.2l1.5,1.5l-1.5,1.5C15.9,10.2,15.9,10.7,16.3,11.1z"/>
	<path class="st0" d="M16.3,20.3c0.2,0.2,0.4,0.3,0.6,0.3s0.5-0.1,0.6-0.3l1.5-1.5l1.5,1.5c0.2,0.2,0.4,0.3,0.6,0.3
		c0.2,0,0.5-0.1,0.6-0.3c0.3-0.3,0.3-0.9,0-1.2l-1.5-1.5l1.5-1.5c0.3-0.3,0.3-0.9,0-1.2s-0.9-0.3-1.2,0L19,16.4l-1.5-1.5
		c-0.3-0.3-0.9-0.3-1.2,0s-0.3,0.9,0,1.2l1.5,1.5l-1.5,1.5C15.9,19.4,15.9,20,16.3,20.3z"/>
</g>
</svg>
