<?xml version="1.0" encoding="utf-8"?>
<!-- Generator: Adobe Illustrator 21.0.0, SVG Export Plug-In . SVG Version: 6.00 Build 0)  -->
<svg version="1.1" baseProfile="basic" id="Слой_1"
	 xmlns="http://www.w3.org/2000/svg" xmlns:xlink="http://www.w3.org/1999/xlink" x="0px" y="0px" viewBox="0 0 32 28.5"
	 xml:space="preserve">
<style type="text/css">
	.st0{fill:#808080;}
</style>
<path class="st0" d="M31,4.6h-22l0-1.6C9.1,1.4,7.7,0,6,0H0l1.7,2.7h4.6l0,17.5c0,1.5,0.9,2.5,2.2,2.8c-0.2,0.4-0.2,0.9-0.2,1.4
	c0,1.1,0.4,2.1,1.2,2.9c0.8,0.8,1.8,1.2,2.9,1.2c2.3,0,4.1-1.9,4.1-4.1c0-0.5-0.1-0.9-0.2-1.3h3.6c-0.1,0.4-0.2,0.9-0.2,1.3
	c0,1.1,0.4,2.1,1.2,2.9c0.8,0.8,1.8,1.2,2.9,1.2c0,0,0,0,0,0c1.1,0,2.1-0.4,2.9-1.2c0.8-0.8,1.2-1.8,1.2-2.9v0
	c0-0.5-0.1-0.9-0.2-1.3h0.6v-2.8h-4.3c-0.1,0-0.2,0-0.3,0c-0.1,0-0.2,0-0.3,0H12.7c-0.1,0-0.2,0-0.3,0c-0.1,0-0.2,0-0.3,0h-3l0-2.1
	l17.8,0c0.7,0,1.5-0.6,1.7-1.3l3.3-11C32.2,5.2,31.8,4.6,31,4.6z M24.6,25.2c-0.2,0.2-0.5,0.3-0.8,0.3c0,0,0,0,0,0s0,0,0,0
	c-0.3,0-0.6-0.1-0.8-0.3c-0.2-0.2-0.3-0.5-0.3-0.8c0-0.6,0.5-1.1,1.1-1.1c0.6,0,1.1,0.5,1.1,1.1C24.9,24.7,24.8,24.9,24.6,25.2z
	 M13.5,24.4c0,0.6-0.5,1.1-1.1,1.1c-0.3,0-0.6-0.1-0.8-0.3c-0.2-0.2-0.3-0.5-0.3-0.8c0-0.6,0.5-1.1,1.1-1.1c0.3,0,0.6,0.1,0.8,0.3
	C13.4,23.8,13.5,24.1,13.5,24.4L13.5,24.4z M14.1,14.5c0,0.5-0.4,0.9-0.9,0.9c-0.5,0-0.9-0.4-0.9-0.9V8.2c0-0.5,0.4-0.9,0.9-0.9
	c0.5,0,0.9,0.4,0.9,0.9V14.5z M18.6,14.5c0,0.5-0.4,0.9-0.9,0.9c-0.5,0-0.9-0.4-0.9-0.9V8.2c0-0.5,0.4-0.9,0.9-0.9
	c0.5,0,0.9,0.4,0.9,0.9V14.5z M23,14.5c0,0.5-0.4,0.9-0.9,0.9c-0.5,0-0.9-0.4-0.9-0.9V8.2c0-0.5,0.4-0.9,0.9-0.9
	c0.5,0,0.9,0.4,0.9,0.9V14.5z M27.5,12.1c0,0.5-0.4,0.9-0.9,0.9c-0.5,0-0.9-0.4-0.9-0.9V8.2c0-0.5,0.4-0.9,0.9-0.9
	c0.5,0,0.9,0.4,0.9,0.9V12.1z"/>
</svg>
