<?xml version="1.0" encoding="utf-8"?>
<!-- Generator: Adobe Illustrator 21.0.0, SVG Export Plug-In . SVG Version: 6.00 Build 0)  -->
<svg version="1.1" baseProfile="basic" id="Слой_1"
	 xmlns="http://www.w3.org/2000/svg" xmlns:xlink="http://www.w3.org/1999/xlink" x="0px" y="0px" viewBox="0 0 32 31.2"
	 xml:space="preserve">
<style type="text/css">
	.st0{fill:#FDCF50;}
</style>
<g>
	<path class="st0" d="M30.4,22.8l-3.4,0l0.2-20.9c0-0.9-0.7-1.6-1.6-1.6L1.8,0c0,0,0,0,0,0C1.4,0,1,0.2,0.7,0.5
		C0.4,0.8,0.2,1.2,0.2,1.6L0,24.3C0,28,2.8,31,6.2,31l16.6,0.1l2.9,0c0,0,0,0,0,0c1.7,0,3.2-0.7,4.4-2c1.2-1.2,1.8-2.9,1.8-4.6
		l0-0.2C32,23.5,31.3,22.8,30.4,22.8z M3.2,24.3L3.4,3.2L24,3.4l-0.2,19.4l-13.1-0.1c-0.4,0-0.8,0.2-1.1,0.5
		c-0.3,0.3-0.5,0.7-0.5,1.1l0,0.2c0,1.7-1.1,3.1-2.6,3.4c-0.1,0-0.1,0-0.2,0l-0.2,0C4.5,27.8,3.2,26.2,3.2,24.3z M27.8,27
		c-0.6,0.6-1.3,1-2.1,1l-14.4-0.1c0.4-0.6,0.6-1.3,0.8-2.1l16.4,0.1C28.4,26.3,28.1,26.7,27.8,27z"/>
	<path class="st0" d="M8.5,10h11.1c0.6,0,1.1-0.5,1.1-1.1s-0.5-1.1-1.1-1.1H8.5c-0.6,0-1.1,0.5-1.1,1.1S7.9,10,8.5,10z"/>
	<path class="st0" d="M8.5,14.6h11.1c0.6,0,1.1-0.5,1.1-1.1s-0.5-1.1-1.1-1.1H8.5c-0.6,0-1.1,0.5-1.1,1.1S7.9,14.6,8.5,14.6z"/>
	<path class="st0" d="M8.5,19.1h11.1c0.6,0,1.1-0.5,1.1-1.1s-0.5-1.1-1.1-1.1H8.5c-0.6,0-1.1,0.5-1.1,1.1S7.9,19.1,8.5,19.1z"/>
</g>
</svg>
