<?xml version="1.0" encoding="utf-8"?>
<!-- Generator: Adobe Illustrator 21.0.0, SVG Export Plug-In . SVG Version: 6.00 Build 0)  -->
<svg version="1.1" baseProfile="basic" id="Слой_1"
	 xmlns="http://www.w3.org/2000/svg" xmlns:xlink="http://www.w3.org/1999/xlink" x="0px" y="0px" viewBox="0 0 33.6 32"
	 xml:space="preserve">
<style type="text/css">
	.st0{fill:#FDCF50;}
</style>
<g>
	<path class="st0" d="M20.8,29.3c-2.5,0-4.9-0.9-6.8-2.6l-6.3,0L7.8,8.1l12.6,0.1c0,0,0,0,0,0c0.4,0,0.8-0.2,1.1-0.4
		c0.3-0.3,0.5-0.7,0.5-1.1l0-0.2c0-1.6,1.1-3,2.5-3.3c0.1,0,0.1,0,0.2,0l0.2,0c0.8,0,1.5,0.3,2,0.9c0.6,0.6,0.9,1.5,0.9,2.4l0,5.1
		c0.1,0.1,0.3,0.2,0.4,0.4c1.3,1.3,2.2,2.8,2.6,4.5l0.1-10c0-1.7-0.6-3.3-1.7-4.5c-1.1-1.2-2.6-1.9-4.3-1.9l-0.6,0c0,0,0,0,0,0
		L6.5,0L6.4,0h0L6,0c0,0,0,0,0,0C2.7,0,0,2.8,0,6.3l0,0.2c0,0.4,0.2,0.8,0.4,1.1C0.7,7.9,1.1,8,1.5,8l3.3,0L4.6,28.1
		c0,0.8,0.7,1.5,1.5,1.5l20.1,0.2l-1.4-1.4C23.6,29,22.2,29.3,20.8,29.3z"/>
	<path class="st0" d="M33.2,29.4l-5.8-5.8c2.1-3.1,1.8-7.3-1-10.1c-3.2-3.2-8.6-3.1-11.6,0.4c-2.6,3-2.6,7.6,0.1,10.6
		c2.7,3,7.1,3.4,10.3,1.2l5.8,5.8c0.6,0.6,1.6,0.6,2.2,0l0,0C33.8,31,33.8,30,33.2,29.4z M24.8,23.2c-2.2,2.2-5.8,2.2-8.1,0
		c-2.2-2.2-2.2-5.8,0-8.1c2.2-2.2,5.8-2.2,8.1,0C27.1,17.4,27.1,21,24.8,23.2z"/>
	<path class="st0" d="M23.9,18.4c-0.3-1.2-1.2-2.2-2.4-2.4v-0.7c0-0.4-0.3-0.7-0.7-0.7s-0.7,0.3-0.7,0.7V16
		c-1.2,0.3-2.2,1.2-2.4,2.4h-0.7c-0.4,0-0.7,0.3-0.7,0.7c0,0.4,0.3,0.7,0.7,0.7h0.7c0.3,1.2,1.2,2.2,2.4,2.4v0.7
		c0,0.4,0.3,0.7,0.7,0.7s0.7-0.3,0.7-0.7v-0.7c1.2-0.3,2.2-1.2,2.4-2.4h0.7c0.4,0,0.7-0.3,0.7-0.7c0-0.4-0.3-0.7-0.7-0.7H23.9z
		 M23,18.4h-1.5v-1.5C22.3,17.1,22.8,17.7,23,18.4z M20.2,16.9v1.5h-1.5C18.9,17.7,19.5,17.1,20.2,16.9z M18.7,19.7h1.5v1.5
		C19.5,21,18.9,20.4,18.7,19.7z M21.5,21.2v-1.5H23C22.8,20.4,22.3,21,21.5,21.2z"/>
</g>
</svg>
