<?xml version="1.0" encoding="utf-8"?>
<!-- Generator: Adobe Illustrator 21.0.0, SVG Export Plug-In . SVG Version: 6.00 Build 0)  -->
<svg version="1.1" baseProfile="basic" id="Слой_1"
	 xmlns="http://www.w3.org/2000/svg" xmlns:xlink="http://www.w3.org/1999/xlink" x="0px" y="0px" viewBox="0 0 21.5 32"
	 xml:space="preserve">
<style type="text/css">
	.st0{fill:#FDCF50;}
</style>
<g>
	<path class="st0" d="M18.3,10.1V3.9h3.2V1.8c0-1-0.8-1.8-1.8-1.8h-18C0.8,0,0,0.8,0,1.8v2.1h3.2v6.2c0,2.2,1,4.3,2.7,5.7
		c-1.7,1.3-2.7,3.4-2.7,5.7v6.7H0v2.1c0,1,0.8,1.8,1.8,1.8h18c1,0,1.8-0.8,1.8-1.8v-2.1h-3.2v-6.7c0-2.2-1-4.3-2.7-5.7
		C17.3,14.4,18.3,12.3,18.3,10.1z M13.1,16.7c1.9,0.8,3.1,2.6,3.1,4.7v5.7H5.4v-5.7c0-2,1.2-3.9,3.1-4.7c0.4-0.2,0.6-0.6,0.6-1
		s-0.3-0.8-0.6-1c-1.9-0.8-3.1-2.6-3.1-4.7V4.4h10.8v5.7c0,2-1.2,3.9-3.1,4.7c-0.4,0.2-0.6,0.6-0.6,1S12.7,16.6,13.1,16.7z"/>
	<path class="st0" d="M14.7,11.1H6.6c0.4,1.9,2.1,3.3,4,3.3C12.7,14.3,14.3,13,14.7,11.1z"/>
	<path class="st0" d="M6.1,26.2h9.3c-0.5-2.1-2.4-3.7-4.6-3.7C8.4,22.5,6.5,24.1,6.1,26.2z"/>
</g>
</svg>
