<?xml version="1.0" encoding="utf-8"?>
<!-- Generator: Adobe Illustrator 21.0.0, SVG Export Plug-In . SVG Version: 6.00 Build 0)  -->
<svg version="1.1" baseProfile="basic" id="Слой_1"
	 xmlns="http://www.w3.org/2000/svg" xmlns:xlink="http://www.w3.org/1999/xlink" x="0px" y="0px" viewBox="0 0 32 31.2"
	 xml:space="preserve">
<style type="text/css">
	.st0{fill:#FDCF50;}
</style>
<g>
	<path class="st0" d="M30.4,22.8l-3.4,0l0.2-21c0-0.4-0.2-0.8-0.5-1.1c-0.3-0.3-0.7-0.5-1.1-0.5L1.8,0C1.4,0,1,0.2,0.7,0.5
		S0.2,1.2,0.2,1.6L0,24.3C0,26,0.6,27.7,1.7,29c1.2,1.3,2.8,2,4.4,2l0.6,0c0,0,0,0,0,0l18.4,0.1l0.1,0c0,0,0,0,0,0l0.3,0
		c0,0,0,0,0,0c3.4,0,6.2-3,6.3-6.6l0-0.2C32,23.5,31.3,22.8,30.4,22.8z M23.8,22.7l-13.1-0.1c-0.4,0-0.8,0.2-1.1,0.5
		c-0.3,0.3-0.5,0.7-0.5,1.1l0,0.2c0,1.7-1.1,3.1-2.6,3.4c-0.1,0-0.1,0-0.2,0l-0.2,0c-0.8,0-1.5-0.4-2.1-1c-0.6-0.7-0.9-1.6-0.9-2.5
		L3.3,3.2L24,3.4L23.8,22.7z"/>
	<path class="st0" d="M8.6,20.5c0.6,0,1-0.5,1-1v-5.2h4.3c0.6,0,1-0.5,1-1c0-0.6-0.5-1-1-1H9.6v-3h9.6c0.6,0,1-0.5,1-1s-0.5-1-1-1
		H8.6c-0.6,0-1,0.5-1,1v11.3C7.6,20,8.1,20.5,8.6,20.5z"/>
</g>
</svg>
