<?xml version="1.0" encoding="utf-8"?>
<!-- Generator: Adobe Illustrator 21.0.0, SVG Export Plug-In . SVG Version: 6.00 Build 0)  -->
<svg version="1.1" baseProfile="basic" id="Слой_1"
	 xmlns="http://www.w3.org/2000/svg" xmlns:xlink="http://www.w3.org/1999/xlink" x="0px" y="0px" viewBox="0 0 32 31.2"
	 xml:space="preserve">
<style type="text/css">
	.st0{fill:#FDCF50;}
</style>
<g>
	<path class="st0" d="M8.8,8.8l0,7.7c0,0.7,0.5,1.2,1.2,1.2h0.5c-0.1,0.2-0.2,0.4-0.2,0.6c0,0.6,0.5,1.2,1.2,1.2
		c0.6,0,1.2-0.5,1.2-1.2c0-0.2-0.1-0.4-0.2-0.6h3c-0.1,0.2-0.2,0.4-0.2,0.6c0,0.6,0.5,1.2,1.2,1.2c0.6,0,1.2-0.5,1.2-1.2
		c0-0.2-0.1-0.4-0.2-0.6h1v-1.2H10l0-0.9l7.9,0c0.3,0,0.7-0.3,0.8-0.6l1.5-4.8c0.1-0.3-0.1-0.6-0.4-0.6H10L10,9
		c0-0.7-0.6-1.4-1.4-1.4H6l0.8,1.2H8.8z M17.3,11.3c0-0.2,0.2-0.4,0.4-0.4c0.2,0,0.4,0.2,0.4,0.4V13c0,0.2-0.2,0.4-0.4,0.4
		c-0.2,0-0.4-0.2-0.4-0.4V11.3z M15.3,11.3c0-0.2,0.2-0.4,0.4-0.4c0.2,0,0.4,0.2,0.4,0.4V14c0,0.2-0.2,0.4-0.4,0.4
		c-0.2,0-0.4-0.2-0.4-0.4V11.3z M13.4,11.3c0-0.2,0.2-0.4,0.4-0.4c0.2,0,0.4,0.2,0.4,0.4V14c0,0.2-0.2,0.4-0.4,0.4
		c-0.2,0-0.4-0.2-0.4-0.4V11.3z M11.4,11.3c0-0.2,0.2-0.4,0.4-0.4c0.2,0,0.4,0.2,0.4,0.4V14c0,0.2-0.2,0.4-0.4,0.4
		c-0.2,0-0.4-0.2-0.4-0.4V11.3z"/>
	<path class="st0" d="M30.4,22.8l-3.4,0l0.2-21c0-0.9-0.7-1.6-1.6-1.6L1.8,0C1.4,0,1,0.2,0.7,0.5C0.4,0.8,0.2,1.2,0.2,1.6L0,24.3
		C0,26,0.6,27.7,1.7,29c1.2,1.3,2.8,2,4.4,2l19.2,0.2c0,0,0,0,0,0l0.3,0c0,0,0,0,0,0c3.4,0,6.2-3,6.3-6.6l0-0.2
		C32,23.5,31.3,22.8,30.4,22.8z M4.1,26.8c-0.6-0.7-0.9-1.6-0.9-2.5L3.3,3.2L24,3.4l-0.2,19.4l-13.1-0.1c-0.4,0-0.8,0.2-1.1,0.5
		c-0.3,0.3-0.5,0.7-0.5,1.1l0,0.2c0,1.7-1.1,3.1-2.6,3.4c-0.1,0-0.1,0-0.2,0l-0.2,0C5.4,27.8,4.7,27.5,4.1,26.8z M25.7,28
		C25.7,28,25.7,28,25.7,28l-14.4-0.1c0.4-0.6,0.6-1.3,0.8-2.1l16.4,0.1C28.1,27.1,27,28,25.7,28z"/>
</g>
</svg>
