<?xml version="1.0" encoding="utf-8"?>
<!-- Generator: Adobe Illustrator 21.0.0, SVG Export Plug-In . SVG Version: 6.00 Build 0)  -->
<svg version="1.1" baseProfile="basic" id="Слой_1"
	 xmlns="http://www.w3.org/2000/svg" xmlns:xlink="http://www.w3.org/1999/xlink" x="0px" y="0px" viewBox="0 0 32 31.7"
	 xml:space="preserve">
<style type="text/css">
	.st0{fill:#FDCF50;}
</style>
<g>
	<path class="st0" d="M31.6,24.7c-0.3-0.3-0.7-0.4-1.1-0.4l-2.8,0l0.1-17.9c0-0.4-0.2-0.8-0.4-1.1c-0.3-0.3-0.7-0.4-1.1-0.4l-2.8,0
		l0-3.1c0-0.4-0.2-0.8-0.4-1.1c-0.3-0.3-0.7-0.4-1.1-0.4L1.7,0c0,0,0,0,0,0C0.8,0,0.2,0.7,0.2,1.5L0,21c0,1.5,0.5,3,1.5,4.1
		c0.8,0.9,1.7,1.4,2.8,1.7c0.2,1.1,0.7,2.2,1.4,3c1,1.1,2.4,1.8,3.9,1.8l16.5,0.1c0,0,0,0,0,0c0,0,0,0,0,0l0.3,0c0,0,0,0,0,0
		c3,0,5.5-2.6,5.5-5.8l0-0.1C32,25.3,31.8,25,31.6,24.7z M5.9,4.7C5.9,4.7,5.9,4.7,5.9,4.7c-0.8,0-1.5,0.7-1.5,1.5L4.3,23.5
		c-0.2-0.1-0.4-0.3-0.5-0.4C3.3,22.6,3,21.8,3,21L3.1,3l17.5,0.1l0,1.6L5.9,4.7z M8,27.8c-0.5-0.6-0.8-1.3-0.8-2.1l0.1-18l17.5,0.1
		l-0.1,16.4l-11.1-0.1c-0.4,0-0.8,0.2-1.1,0.4c-0.3,0.3-0.4,0.7-0.4,1.1l0,0.1c0,1.4-0.9,2.6-2.1,2.8c0,0-0.1,0-0.1,0l-0.1,0
		C9.1,28.6,8.5,28.3,8,27.8z M26.5,28.7l-12.1-0.1c0.3-0.5,0.4-1,0.6-1.5l13.8,0.1C28.3,28.1,27.4,28.7,26.5,28.7z"/>
	<path class="st0" d="M11.7,13.5h9.5c0.6,0,1.1-0.5,1.1-1.1c0-0.6-0.5-1.1-1.1-1.1h-9.5c-0.6,0-1.1,0.5-1.1,1.1
		C10.6,13,11.1,13.5,11.7,13.5z"/>
	<path class="st0" d="M11.7,17.4h9.5c0.6,0,1.1-0.5,1.1-1.1c0-0.6-0.5-1.1-1.1-1.1h-9.5c-0.6,0-1.1,0.5-1.1,1.1
		C10.6,16.9,11.1,17.4,11.7,17.4z"/>
	<path class="st0" d="M11.7,21.3h9.5c0.6,0,1.1-0.5,1.1-1.1c0-0.6-0.5-1.1-1.1-1.1h-9.5c-0.6,0-1.1,0.5-1.1,1.1
		C10.6,20.8,11.1,21.3,11.7,21.3z"/>
</g>
</svg>
