<?xml version="1.0" encoding="utf-8"?>
<!-- Generator: Adobe Illustrator 21.0.0, SVG Export Plug-In . SVG Version: 6.00 Build 0)  -->
<svg version="1.1" baseProfile="basic" id="Слой_1"
	 xmlns="http://www.w3.org/2000/svg" xmlns:xlink="http://www.w3.org/1999/xlink" x="0px" y="0px" viewBox="0 0 32 34.1"
	 xml:space="preserve">
<style type="text/css">
	.st0{fill:#FDCF50;}
</style>
<g>
	<path class="st0" d="M30.4,0H8C7.1,0,6.4,0.7,6.4,1.6v4.2H1.6C0.7,5.8,0,6.5,0,7.4v3.8c0,0.9,0.7,1.6,1.6,1.6s1.6-0.7,1.6-1.6V9
		h19.2v21.9H3.2V17.5c0-0.9-0.7-1.6-1.6-1.6S0,16.6,0,17.5v15c0,0.9,0.7,1.6,1.6,1.6H24c0.9,0,1.6-0.7,1.6-1.6v-4.2h4.9
		c0.9,0,1.6-0.7,1.6-1.6V1.6C32,0.7,31.3,0,30.4,0z M28.8,25.1h-3.3V7.4c0-0.9-0.7-1.6-1.6-1.6H9.6V3.2h19.2V25.1z"/>
	<path class="st0" d="M8,22.5h8.8c1.4,0,2.5-1.1,2.5-2.5v-5c0-1.4-1.1-2.5-2.5-2.5H8c-1.4,0-2.5,1.1-2.5,2.5v5
		C5.4,21.3,6.6,22.5,8,22.5z M6.8,14.9c0-0.7,0.5-1.2,1.2-1.2h8.8c0.7,0,1.2,0.5,1.2,1.2v5c0,0.7-0.5,1.2-1.2,1.2H8
		c-0.7,0-1.2-0.5-1.2-1.2V14.9z"/>
	<path class="st0" d="M11.6,19.2l2.7-1.8c0.2-0.1,0.2-0.4,0-0.5l-2.7-1.8c-0.2-0.1-0.5,0-0.5,0.3V19C11.1,19.2,11.4,19.3,11.6,19.2z
		"/>
	<path class="st0" d="M6.1,27h5.7c0.2,0.4,0.7,0.7,1.2,0.7c0.8,0,1.4-0.6,1.4-1.4c0-0.8-0.6-1.4-1.4-1.4c-0.5,0-1,0.3-1.2,0.7H6.1
		c-0.4,0-0.7,0.3-0.7,0.7C5.4,26.7,5.7,27,6.1,27z"/>
</g>
</svg>
