<?xml version="1.0" encoding="utf-8"?>
<!-- Generator: Adobe Illustrator 21.0.0, SVG Export Plug-In . SVG Version: 6.00 Build 0)  -->
<svg version="1.1" baseProfile="basic" id="Слой_1"
	 xmlns="http://www.w3.org/2000/svg" xmlns:xlink="http://www.w3.org/1999/xlink" x="0px" y="0px" viewBox="0 0 32 32"
	 xml:space="preserve">
<style type="text/css">
	.st0{fill-rule:evenodd;clip-rule:evenodd;fill:#FDCF50;}
</style>
<g>
	<path class="st0" d="M27.3,4.7c-6.2-6.2-16.4-6.2-22.6,0c-6.2,6.2-6.2,16.4,0,22.6C7.8,30.4,11.9,32,16,32s8.2-1.6,11.3-4.7
		C33.6,21.1,33.6,10.9,27.3,4.7z M25.1,25.1c-5,5-13.1,5-18.1,0c-5-5-5-13.1,0-18.1c2.5-2.5,5.8-3.7,9.1-3.7s6.6,1.2,9.1,3.7
		C30.1,11.9,30.1,20.1,25.1,25.1z"/>
	<path class="st0" d="M21,15.1l-7.4-4.9c-0.6-0.4-1.5,0-1.5,0.8v9.7c0,0.8,0.8,1.2,1.5,0.8l7.4-4.9C21.6,16.3,21.6,15.4,21,15.1z"/>
</g>
</svg>
