<?xml version="1.0" encoding="utf-8"?>
<!-- Generator: Adobe Illustrator 21.0.0, SVG Export Plug-In . SVG Version: 6.00 Build 0)  -->
<svg version="1.1" baseProfile="basic" id="Слой_1"
	 xmlns="http://www.w3.org/2000/svg" xmlns:xlink="http://www.w3.org/1999/xlink" x="0px" y="0px" viewBox="0 0 32 32"
	 xml:space="preserve">
<style type="text/css">
	.st0{fill:#FDCF50;}
</style>
<g>
	<path class="st0" d="M16,0c-0.8,0-1.5,0.7-1.5,1.5v5.4c0,0.8,0.7,1.5,1.5,1.5c0.8,0,1.5-0.7,1.5-1.5V1.5C17.5,0.7,16.8,0,16,0z"/>
	<path class="st0" d="M16,23.6c-0.8,0-1.5,0.7-1.5,1.5v5.4c0,0.8,0.7,1.5,1.5,1.5c0.8,0,1.5-0.7,1.5-1.5v-5.4
		C17.5,24.2,16.8,23.6,16,23.6z"/>
	<path class="st0" d="M30.5,14.5h-5.4c-0.8,0-1.5,0.7-1.5,1.5c0,0.8,0.7,1.5,1.5,1.5h5.4c0.8,0,1.5-0.7,1.5-1.5
		C32,15.2,31.3,14.5,30.5,14.5z"/>
	<path class="st0" d="M8.4,16c0-0.8-0.7-1.5-1.5-1.5H1.5C0.7,14.5,0,15.2,0,16c0,0.8,0.7,1.5,1.5,1.5h5.4C7.8,17.5,8.4,16.8,8.4,16z
		"/>
	<path class="st0" d="M23.5,21.3c-0.6-0.6-1.5-0.6-2.1,0c-0.6,0.6-0.6,1.5,0,2.1l3.8,3.8c0.3,0.3,0.7,0.4,1.1,0.4
		c0.4,0,0.8-0.1,1.1-0.4c0.6-0.6,0.6-1.5,0-2.1L23.5,21.3z"/>
	<path class="st0" d="M6.8,4.7c-0.6-0.6-1.5-0.6-2.1,0s-0.6,1.5,0,2.1l3.8,3.8c0.3,0.3,0.7,0.4,1.1,0.4s0.8-0.1,1.1-0.4
		c0.6-0.6,0.6-1.5,0-2.1L6.8,4.7z"/>
	<path class="st0" d="M8.5,21.3l-3.8,3.8c-0.6,0.6-0.6,1.5,0,2.1c0.3,0.3,0.7,0.4,1.1,0.4c0.4,0,0.8-0.1,1.1-0.4l3.8-3.8
		c0.6-0.6,0.6-1.5,0-2.1S9.1,20.8,8.5,21.3z"/>
</g>
</svg>
