<?xml version="1.0" encoding="utf-8"?>
<!-- Generator: Adobe Illustrator 21.0.0, SVG Export Plug-In . SVG Version: 6.00 Build 0)  -->
<svg version="1.1" baseProfile="basic" id="Слой_1"
	 xmlns="http://www.w3.org/2000/svg" xmlns:xlink="http://www.w3.org/1999/xlink" x="0px" y="0px" viewBox="0 0 32 29.4"
	 xml:space="preserve">
<style type="text/css">
	.st0{fill:#FDCF50;}
</style>
<g>
	<g>
		<path class="st0" d="M15.8,20.6h-2.3c-0.8,0-1.4,0.6-1.4,1.4v0.1c0,1.5-0.9,2.7-2.2,3c-0.1,0-0.1,0-0.2,0H9.6
			c-1.5,0-2.6-1.3-2.6-3V11.8L4.2,9v13.2c0,3.2,2.4,5.8,5.4,5.8h0.5h13L15.8,20.6z"/>
		<path class="st0" d="M30.6,20.6h-2.9V2.5c0-0.8-0.6-1.4-1.4-1.4H5.9l2.8,2.8h16.2v16.2l5.5,5.5c0.1,0.1,0.2,0.2,0.3,0.4
			c0.8-1,1.3-2.3,1.3-3.8V22C32,21.3,31.4,20.6,30.6,20.6z"/>
	</g>
	<path class="st0" d="M28,29.4c-0.4,0-0.7-0.1-1-0.4L0.4,2.4c-0.5-0.5-0.5-1.4,0-2s1.4-0.5,2,0L29,27c0.5,0.5,0.5,1.4,0,2
		C28.7,29.2,28.3,29.4,28,29.4z"/>
</g>
</svg>
