<?xml version="1.0" encoding="utf-8"?>
<!-- Generator: Adobe Illustrator 21.0.0, SVG Export Plug-In . SVG Version: 6.00 Build 0)  -->
<svg version="1.1" baseProfile="basic" id="Слой_1"
	 xmlns="http://www.w3.org/2000/svg" xmlns:xlink="http://www.w3.org/1999/xlink" x="0px" y="0px" viewBox="0 0 32 29.6"
	 xml:space="preserve">
<style type="text/css">
	.st0{fill:#FDCF50;}
</style>
<g>
	<path class="st0" d="M29.1,21.5h-3.3v-7.6l-2.4,2.4c-0.2,0.2-0.3,0.3-0.5,0.4c0,0.1-0.1,0.2-0.2,0.3v4.6H10.2
		c-0.8,0-1.5,0.7-1.5,1.5v0.2c0,1.6-1,3-2.4,3.3c-0.1,0-0.1,0-0.2,0H6c-1.6,0-2.9-1.5-2.9-3.3V3h18.6l3-3c-0.1,0-0.2,0-0.4,0H1.5
		C0.7,0,0,0.7,0,1.5v21.7c0,3.5,2.7,6.4,6,6.4h0.6h17.7h0.3c3.3,0,6-2.9,6-6.4v-0.2C30.6,22.2,29.9,21.5,29.1,21.5z"/>
	<rect x="17.6" y="4.3" transform="matrix(0.7071 -0.7071 0.7071 0.7071 1.9523 19.677)" class="st0" width="14.3" height="6.3"/>
	<path class="st0" d="M15.1,17.8l5.8-1.9l-4.5-4.6l-1.9,6C14.3,17.6,14.7,18,15.1,17.8z"/>
</g>
</svg>
