<?xml version="1.0" encoding="utf-8"?>
<!-- Generator: Adobe Illustrator 21.0.0, SVG Export Plug-In . SVG Version: 6.00 Build 0)  -->
<svg version="1.1" baseProfile="basic" id="Слой_1"
	 xmlns="http://www.w3.org/2000/svg" xmlns:xlink="http://www.w3.org/1999/xlink" x="0px" y="0px" viewBox="0 0 32 34.8"
	 xml:space="preserve">
<style type="text/css">
	.st0{fill:#FDCF50;}
</style>
<g>
	<path class="st0" d="M25.8,0h-0.6H6.6H6.2C2.8,0,0,3,0,6.7v0.2c0,0.9,0.7,1.6,1.6,1.6H5v21C5,30.3,5.7,31,6.6,31h7.9v-3
		c0-0.1,0-0.1,0-0.2H8.2V8.4h13.1c0.9,0,1.6-0.7,1.6-1.6V6.7c0-1.7,1.1-3.2,2.6-3.4c0.1,0,0.1,0,0.2,0h0.2c1.7,0,3.1,1.6,3.1,3.5
		v21.1h-2.4c0,0.1,0,0.1,0,0.2v3h4c0.9,0,1.6-0.7,1.6-1.6V6.7C32,3,29.2,0,25.8,0z M19.8,5.2H3.4C3.9,4,5,3.2,6.2,3.2h14.4
		C20.2,3.8,20,4.5,19.8,5.2z"/>
	<path class="st0" d="M25.1,28c0-1.5-0.7-2.8-1.9-3.7c1.2-0.8,1.9-2.2,1.9-3.7v-4h2.3v-1.4c0-0.6-0.5-1.2-1.2-1.2H14.6
		c-0.6,0-1.2,0.5-1.2,1.2v1.4h2.3v4c0,1.5,0.7,2.8,1.9,3.7c-1.2,0.8-1.9,2.2-1.9,3.7v4.3h-2.3v1.4c0,0.6,0.5,1.2,1.2,1.2h11.6
		c0.6,0,1.2-0.5,1.2-1.2v-1.4h-2.3V28z M16.7,28c0-1.4,0.8-2.7,2.1-3.2c0.2-0.1,0.3-0.2,0.3-0.4c0-0.2-0.1-0.3-0.3-0.4
		c-1.3-0.6-2.1-1.8-2.1-3.2v-3.9h7.5v3.9c0,1.4-0.8,2.7-2.1,3.2c-0.2,0.1-0.3,0.2-0.3,0.4c0,0.2,0.1,0.3,0.3,0.4
		c1.3,0.6,2.1,1.8,2.1,3.2v3.9h-7.5V28z"/>
	<path class="st0" d="M22.9,21.3l-5.2,0.1c0.3,1.2,1.4,2.1,2.6,2.1C21.6,23.4,22.7,22.5,22.9,21.3z"/>
	<path class="st0" d="M20.4,28.7c-1.5,0-2.7,1.1-3,2.4l6-0.1C23.1,29.7,21.9,28.7,20.4,28.7z"/>
</g>
</svg>
