<?xml version="1.0" encoding="utf-8"?>
<!-- Generator: Adobe Illustrator 21.0.0, SVG Export Plug-In . SVG Version: 6.00 Build 0)  -->
<svg version="1.1" baseProfile="basic" id="Слой_1"
	 xmlns="http://www.w3.org/2000/svg" xmlns:xlink="http://www.w3.org/1999/xlink" x="0px" y="0px" viewBox="0 0 32 32"
	 xml:space="preserve">
<style type="text/css">
	.st0{fill:#FDCF50;}
</style>
<g>
	<circle class="st0" cx="22.1" cy="13.1" r="2.7"/>
	<g>
		<path class="st0" d="M16,0C7.2,0,0,7.2,0,16s7.2,16,16,16s16-7.2,16-16S24.8,0,16,0z M16,28.6C9.1,28.6,3.4,22.9,3.4,16
			C3.4,9.1,9.1,3.4,16,3.4S28.6,9.1,28.6,16C28.6,22.9,22.9,28.6,16,28.6z"/>
		<path class="st0" d="M16.1,17.5c-3.3,0-6.2,1.7-7.9,4.3l15.6-0.2C22.1,19.1,19.3,17.5,16.1,17.5z"/>
		<circle class="st0" cx="10.4" cy="13.1" r="2.7"/>
	</g>
</g>
</svg>
