<?xml version="1.0" encoding="utf-8"?>
<!-- Generator: Adobe Illustrator 21.0.0, SVG Export Plug-In . SVG Version: 6.00 Build 0)  -->
<svg version="1.1" baseProfile="basic" id="Слой_1"
	 xmlns="http://www.w3.org/2000/svg" xmlns:xlink="http://www.w3.org/1999/xlink" x="0px" y="0px" viewBox="0 0 32 25.7"
	 xml:space="preserve">
<style type="text/css">
	.st0{fill:#FDCF50;}
</style>
<g>
	<path class="st0" d="M132.9,2183.9h-7.5v-38.8c-2.5,0.1-4.9,0.7-7,1.8v37H89.6c-1.9,0-3.5,1.6-3.5,3.5v0.4c0,3.8-2.4,6.9-5.6,7.6
		c-0.1,0-0.3,0.1-0.4,0.1h-0.3c-3.7,0-6.8-3.4-6.8-7.7v-46.5h26.7c2.1-2.7,4.5-5.1,7.3-7H69.5c-1.9,0-3.5,1.6-3.5,3.5v50
		c0,8.1,6.2,14.7,13.8,14.7h1.4h40.8h0.7c7.6,0,13.8-6.6,13.8-14.7v-0.4C136.4,2185.5,134.9,2183.9,132.9,2183.9z"/>
	<path class="st0" d="M125.9,2133.3c-13.5,0-24.9,9.6-27.4,22.6l-3.5-3.5h-1.6l-3.2,3.2v1.6l8.9,8.9l0.8,0.3h3.2l0.8-0.3l8.9-8.9
		v-1.6l-3.2-3.2H108l-2,2c2.9-8.4,10.9-14.3,19.9-14.3c8.7,0,16.6,5.4,19.7,13.5l1.5,0.7l4.3-1.6l0.7-1.5
		C147.9,2140.5,137.4,2133.3,125.9,2133.3z"/>
</g>
<g>
	<path class="st0" d="M24.9,18.9h-2.8V4.4c-0.9,0-1.8,0.3-2.6,0.7v13.7H8.8c-0.7,0-1.3,0.6-1.3,1.3v0.1c0,1.4-0.9,2.6-2.1,2.8
		c0,0-0.1,0-0.1,0H5.1c-1.4,0-2.5-1.3-2.5-2.9V3h9.9c0.8-1,1.7-1.9,2.7-2.6H1.3C0.6,0.4,0,1,0,1.7v18.6c0,3,2.3,5.5,5.1,5.5h0.5
		h15.2h0.3c2.8,0,5.1-2.4,5.1-5.5v-0.1C26.2,19.4,25.6,18.9,24.9,18.9z"/>
	<path class="st0" d="M22.3,0c-5,0-9.3,3.6-10.2,8.4l-1.3-1.3h-0.6L9,8.3v0.6l3.3,3.3l0.3,0.1h1.2l0.3-0.1l3.3-3.3V8.3l-1.2-1.2
		h-0.6l-0.8,0.8c1.1-3.1,4-5.3,7.4-5.3c3.2,0,6.2,2,7.3,5l0.5,0.2l1.6-0.6L32,6.7C30.5,2.7,26.6,0,22.3,0z"/>
</g>
</svg>
