<?xml version="1.0" encoding="utf-8"?>
<!-- Generator: Adobe Illustrator 21.0.0, SVG Export Plug-In . SVG Version: 6.00 Build 0)  -->
<svg version="1.1" baseProfile="basic" id="Слой_1"
	 xmlns="http://www.w3.org/2000/svg" xmlns:xlink="http://www.w3.org/1999/xlink" x="0px" y="0px" viewBox="0 0 32 27.7"
	 xml:space="preserve">
<style type="text/css">
	.st0{fill-rule:evenodd;clip-rule:evenodd;fill:#FDCF50;}
</style>
<g>
	<path class="st0" d="M13.8,24.6C7.9,24.6,3,19.8,3,13.8S7.9,3,13.8,3c3.5,0,6.6,1.6,8.5,4.2l2.2-2.1C22,2,18.2,0,13.8,0
		C6.2,0,0,6.2,0,13.8s6.2,13.8,13.8,13.8c7.6,0,13.8-6.2,13.8-13.8l-3.6,3.5C22.6,21.6,18.6,24.6,13.8,24.6z"/>
	<path class="st0" d="M31.4,4.3C31,4,30.5,3.7,30,3.7c-0.5,0-1.1,0.2-1.5,0.6L17,15.4L10.5,9C10.2,8.7,9.7,8.4,9,8.4
		C8.5,8.4,8,8.7,7.7,9C7.4,9.2,7.3,9.4,7.2,9.7C7,10,7,10.2,7,10.5c0,0.3,0,0.5,0.2,0.7c0.1,0.3,0.2,0.5,0.4,0.7l7.8,7.8
		c0.4,0.5,0.9,0.7,1.5,0.7c0.5,0,1-0.2,1.4-0.7l13-12.5C31.8,6.9,32,6.3,32,5.8C32,5.3,31.8,4.8,31.4,4.3z"/>
</g>
</svg>
